PathFileType	4	(X/Y/Z)	/Users/mathieubourgeois/Desktop/Analyse/Traitement/Sujet_06/Data/Transformed_Sujet_06_velo_80.trc
DataRate	CameraRate	NumFrames	NumMarkers	Units	OrigDataRate	OrigDataStartFrame	OrigNumFrames
120.000000	120.000000	4	36	mm	120.000000	1182	1892
Frame#	Time	RFHD			RANE			STRN			LANI			LKNE			T10			RHUM			RWRB			C7			LFWT			LTOE			RTOE			LWRA			LBWT			RBWT			RFWT			LKNI			RKNI			RKNE			LANE			RANI			LHEE			RHEE			LHUM			LRAD			RRAD			RWRA			LWRB			LFHD			LBHD			RBHD			RSHO			LSHO			CLAV			LCAR			RCAR			
		X1	Y1	Z1	X2	Y2	Z2	X3	Y3	Z3	X4	Y4	Z4	X5	Y5	Z5	X6	Y6	Z6	X7	Y7	Z7	X8	Y8	Z8	X9	Y9	Z9	X10	Y10	Z10	X11	Y11	Z11	X12	Y12	Z12	X13	Y13	Z13	X14	Y14	Z14	X15	Y15	Z15	X16	Y16	Z16	X17	Y17	Z17	X18	Y18	Z18	X19	Y19	Z19	X20	Y20	Z20	X21	Y21	Z21	X22	Y22	Z22	X23	Y23	Z23	X24	Y24	Z24	X25	Y25	Z25	X26	Y26	Z26	X27	Y27	Z27	X28	Y28	Z28	X29	Y29	Z29	X30	Y30	Z30	X31	Y31	Z31	X32	Y32	Z32	X33	Y33	Z33	X34	Y34	Z34	X35	Y35	Z35	X36	Y36	Z36	

1183	9.85	275.0411682128906	1370.737548828125	108.9630737304687	-154.3192443847657	278.1158142089844	194.2261505126953	-29.56662559509278	1198.665283203125	48.08600997924797	33.27180862426759	567.2266845703125	-52.7956237792969	136.8839569091797	935.0059814453125	-122.4549789428711	-187.3349456787109	1344.879516601562	64.53713989257801	179.8760223388672	1117.118041992188	233.5978393554687	382.7679138183594	1009.918273925781	178.1149291992188	46.79692077636718	1460.238159179688	55.46831130981437	-179.4905700683594	1116.970458984375	-52.73503112792978	163.3512573242188	465.5747985839844	-133.8551177978516	-6.723005771636987	155.4420776367188	194.8915100097656	406.3557434082031	1030.304321289062	-122.6700134277344	-336.1333312988281	1145.486450195312	5.220093250274547	-327.0113525390625	1137.103881835938	113.3408050537108	-172.4305419921875	1099.890380859375	159.390396118164	162.8552551269531	890.3067016601562	-28.63901519775394	-6.494118213653577	612.9921264648438	101.6814880371093	-21.28508567810061	664.2171020507812	193.6040344238281	0.1082765832543532	570.0281982421875	-129.7135314941407	-122.346176147461	274.9259948730469	118.7670974731445	-51.48008346557616	567.2574462890625	-85.86859893798831	-207.999496459961	280.9460144042969	147.1621398925781	185.9344787597657	1121.589965820312	-192.2615203857422	221.8362426757813	1168.56787109375	-219.2696533203126	221.0394592285156	1146.400146484375	280.4731445312499	412.4923095703124	1016.623718261719	238.5421600341797	432.7064208984375	1034.58642578125	-179.1671600341797	271.9011535644531	1364.378295898438	-34.57631683349614	202.4450988769531	1497.867919921875	-38.10801696777351	207.9591979980469	1522.776000976562	88.57407379150384	65.91593170166013	1413.490234375	192.1141815185546	51.27661132812501	1413.969970703125	-95.98544311523446	57.43603515624999	1322.498901367188	49.40583419799798	479.8281555175781	1050.628662109375	-96.97579956054689	485.0951843261719	1046.858276367188	179.4961853027344	
1184	9.858333333333333	274.6254577636719	1370.318359375	109.2457275390624	-163.265609741211	285.6504516601562	193.8969726562499	-30.3103313446045	1198.585571289062	48.01340484619133	41.41006088256837	559.010986328125	-53.12221908569339	136.0124053955078	930.3729858398438	-121.5408325195313	-187.8694458007812	1344.998413085938	64.43941497802723	179.6383056640625	1116.940063476562	233.4081878662109	377.7104797363281	1010.684631347656	180.6421051025391	46.43984222412109	1460.085571289062	55.61899185180656	-180.2315521240234	1116.956909179688	-53.08758163452158	174.0578308105469	461.1410827636719	-133.9369659423828	-17.78657722473147	160.9064025878906	195.2348785400391	406.2477111816406	1030.333618164062	-122.5443878173828	-336.759033203125	1145.295288085938	4.825098991393932	-327.8496398925781	1137.1611328125	112.9282836914061	-173.2276763916016	1100.010375976562	159.188491821289	162.1437225341797	885.7820434570312	-27.59155464172366	-0.9387333989143495	615.9910888671875	100.4602737426757	-19.05744171142581	666.7391967773438	193.968765258789	8.88643646240236	560.9844970703125	-129.86083984375	-131.3470916748047	281.75390625	118.3863067626953	-44.08579635620116	556.8321533203125	-86.70600128173831	-216.957015991211	289.4165344238281	146.7914123535156	185.7360992431641	1121.626953125	-191.9827270507813	221.6148071289063	1168.594848632812	-219.009750366211	220.6915435791015	1146.186889648438	280.3566589355468	412.3126220703124	1016.606079101562	238.5274200439453	432.5695495605469	1034.674926757812	-179.0792694091797	271.6028137207031	1364.03564453125	-34.29586029052739	202.1597137451172	1497.547607421875	-37.76353454589851	207.5995941162109	1522.353149414062	88.93167114257805	65.44384765624997	1413.232177734375	192.2237548828124	50.9315643310547	1413.88134765625	-95.83262634277352	56.98548507690429	1322.261840820312	49.48963546752923	479.7109375	1050.662719726562	-96.9228973388672	484.9709777832031	1046.910400390625	179.5436706542969	
1185	9.866666666666667	274.1149597167969	1369.876342773438	109.633071899414	-171.6313171386719	293.9087219238281	193.5916900634765	-31.07905197143555	1198.448364257812	47.96636581420891	49.89958572387696	550.267333984375	-53.6802673339844	134.7784271240235	924.8289794921875	-120.7301177978516	-188.3204803466797	1345.001220703125	64.26611328124989	179.3765258789062	1116.75390625	233.2277221679687	384.5646057128906	1009.595764160156	177.9584350585938	46.03306579589843	1459.891357421875	55.84576416015616	-180.8489532470703	1116.851440429688	-53.4328498840333	185.7147521972657	454.9711608886719	-133.7961883544922	-28.36586189270022	167.0951385498047	195.5072326660156	406.1329345703125	1030.364624023438	-122.4095077514649	-337.3577270507812	1145.052978515625	4.327513217925913	-328.6116638183594	1137.149658203125	112.4182510375975	-173.9068756103516	1100.1181640625	158.8867187499999	160.8960113525391	879.9767456054688	-26.3359355926514	1.258787155151355	618.8870849609375	100.6975555419921	-16.27166175842288	669.5855102539062	194.2794189453125	16.56731414794923	551.10107421875	-130.4341735839844	-139.8347930908203	289.29736328125	118.0865325927734	-35.68924713134765	545.7921752929688	-86.70400238037112	-225.2992248535157	298.7145690917969	146.5261077880859	185.4794616699219	1121.8544921875	-191.5326232910157	221.4376983642578	1168.663940429688	-218.6759948730469	220.1954498291015	1145.683959960938	280.3215942382812	412.1430358886718	1016.6005859375	238.5209350585938	432.4174194335938	1034.762451171875	-178.9745178222656	271.2784729003906	1363.693481445312	-33.92319488525396	201.9003753662109	1497.236938476562	-37.38117599487312	207.236083984375	1521.959106445312	89.32365417480462	64.99741363525388	1412.94970703125	192.3130798339843	50.54730606079103	1413.817626953125	-95.66612243652352	56.41353225708007	1321.99560546875	49.60823440551751	479.6098022460938	1050.72119140625	-96.82246398925783	484.7716064453125	1047.090942382812	179.8715515136719	
1186	9.875	273.6395568847656	1369.38427734375	110.012840270996	-179.2992553710938	302.9171142578125	193.3611602783203	-31.72184944152833	1198.357299804688	47.89609527587883	55.91422653198243	539.6419067382812	-53.38899993896487	133.3978271484375	918.0897216796875	-119.8503036499024	-188.8464813232422	1345.01123046875	64.16891479492176	179.1372680664062	1116.574462890625	233.0541229248047	384.4815368652344	1009.590087890625	177.9848175048828	45.63911056518554	1459.70849609375	56.10446548461906	-181.3645172119141	1116.66845703125	-53.90372467041025	194.7003021240235	449.1500244140625	-134.218994140625	-38.38629531860354	173.9694671630859	195.8077392578125	406.0659790039062	1030.417114257812	-122.3260192871094	-337.8863830566406	1144.764770507812	3.862097501754649	-329.3426513671875	1137.11669921875	111.9197998046874	-174.5227661132813	1100.221069335938	158.521514892578	159.8728790283203	873.0630493164062	-26.00924301147464	3.686869382858264	622.1611938476562	101.1274032592773	-13.04120826721194	672.8137817382812	194.6909027099609	23.74546813964846	540.471923828125	-130.7885131835938	-147.6925811767578	297.6451416015625	117.7722015380859	-28.02705192565917	533.496826171875	-87.10831451416018	-232.8962097167969	308.7894287109375	146.2308349609374	185.3274383544922	1121.935913085938	-191.1540679931641	221.264633178711	1168.762084960938	-218.311264038086	219.8845520019531	1145.459350585938	280.2746276855468	412.0975036621093	1016.232238769531	238.4072113037109	432.3005981445312	1034.866943359375	-178.8568572998047	270.9260864257812	1363.336791992188	-33.52296447753911	201.6896667480469	1496.9609375	-36.94018554687507	206.8539428710938	1521.555053710938	89.81433105468743	64.49800109863278	1412.65380859375	192.5881805419921	50.21474456787111	1413.782958984375	-95.43607330322274	55.9512710571289	1321.784301757812	49.78677368164055	479.5343933105469	1050.7412109375	-96.7226028442383	484.6584167480469	1047.129760742188	179.9289398193359	
